<svg width="400" height="400" viewBox="0 0 400 400" fill="none" xmlns="http://www.w3.org/2000/svg">
<g filter="url(#filter0_i_273_25)">
<rect width="400" height="400" fill="#FB2A54"/>
<rect width="400" height="400" fill="url(#paint0_linear_273_25)" fill-opacity="0.1"/>
<path d="M266.481 166.273L165.047 202.716L165.058 277.66C165.058 296.899 147.7 312.496 126.273 312.496C104.858 312.496 87.5 296.899 87.5 277.66C87.5 258.421 104.858 242.824 126.273 242.824C133.598 242.778 140.805 244.668 147.164 248.304V163.057C147.164 156.505 147.164 150.949 147.711 146.377C148.302 141.521 149.581 137.037 152.655 132.88C155.739 128.724 159.841 125.935 164.598 123.573C169.077 121.355 174.776 119.215 181.491 116.693L181.519 116.682L206.5 107.287C220.872 101.873 232.597 97.4758 242.047 95.3102C251.814 93.0789 261.308 92.718 269.741 97.7602L269.839 97.8149C272.749 99.5211 275.269 101.82 277.233 104.563C280.383 108.916 282.023 114.145 282.942 119.723C283.124 120.849 283.281 121.98 283.413 123.113C284.375 131.295 284.375 141.565 284.375 153.815V229L266.481 219V166.273Z" fill="white" fill-opacity="0.8"/>
<path d="M286.949 244.67C289.003 245.787 290.721 247.455 291.919 249.495C293.117 251.535 293.75 253.87 293.75 256.25C293.75 258.63 293.117 260.965 291.919 263.005C290.721 265.045 289.003 266.713 286.949 267.83L232.159 298.31C223.337 303.223 212.5 296.836 212.5 286.734V225.77C212.5 215.664 223.337 209.281 232.159 214.186L286.949 244.67Z" fill="white" fill-opacity="0.8"/>
</g>
<defs>
<filter id="filter0_i_273_25" x="0" y="0" width="400" height="404" filterUnits="userSpaceOnUse" color-interpolation-filters="sRGB">
<feFlood flood-opacity="0" result="BackgroundImageFix"/>
<feBlend mode="normal" in="SourceGraphic" in2="BackgroundImageFix" result="shape"/>
<feColorMatrix in="SourceAlpha" type="matrix" values="0 0 0 0 0 0 0 0 0 0 0 0 0 0 0 0 0 0 127 0" result="hardAlpha"/>
<feOffset dy="4"/>
<feGaussianBlur stdDeviation="60"/>
<feComposite in2="hardAlpha" operator="arithmetic" k2="-1" k3="1"/>
<feColorMatrix type="matrix" values="0 0 0 0 1 0 0 0 0 1 0 0 0 0 1 0 0 0 0.1 0"/>
<feBlend mode="normal" in2="shape" result="effect1_innerShadow_273_25"/>
</filter>
<linearGradient id="paint0_linear_273_25" x1="200" y1="0" x2="200" y2="400" gradientUnits="userSpaceOnUse">
<stop stop-color="white"/>
<stop offset="1" stop-color="white" stop-opacity="0"/>
</linearGradient>
</defs>
</svg>
